<svg width="298" height="284" viewBox="0 0 298 284" fill="none" xmlns="http://www.w3.org/2000/svg">
<g clip-path="url(#clip0_22_117)">
<path d="M277.019 144.91C277.16 146.05 277.019 147.222 277.019 148.363C277.041 187.436 277.038 226.51 277.039 265.583C277.039 266.529 277.039 267.475 277.039 268.664C275.811 268.733 274.875 268.831 273.939 268.832C235.443 268.839 196.947 268.811 158.451 268.895C155.65 268.901 154.789 268.111 154.848 265.296C155.107 252.899 155.234 240.498 155.233 228.099C155.233 225.579 156.107 225.065 158.423 225.072C182.083 225.145 205.743 225.117 229.403 225.115C233.323 225.115 233.329 225.112 233.33 221.08C233.338 195.872 233.344 170.663 233.652 145.182C248.175 144.921 262.799 144.899 277.019 144.91Z" fill="#9CAAC7"/>
<path d="M66.9336 144.869C66.9336 146.074 66.9322 146.171 66.9336 146.947C66.9721 169.249 67.5781 191.744 67.5872 214.046C67.5902 221.568 71.1188 225.109 78.623 225.113C99.9578 225.123 121.293 225.155 142.627 225.065C145.19 225.055 146.133 225.6 146.095 228.403C145.932 240.715 145.965 253.032 146.069 265.345C146.091 267.887 145.545 268.908 142.715 268.9C107.125 268.808 71.5344 268.848 35.9443 268.836C29.5096 268.834 23.887 263.445 23.8842 257.142C23.8679 219.908 23.9001 182.674 24.2224 145.173C37.657 144.907 50.7853 144.929 63.9132 144.87C64.9129 144.865 66.0605 144.91 66.9336 144.869Z" fill="#7CADC7"/>
<path d="M29.1574 15.2269C66.9583 15.2269 104.477 15.2263 141.995 15.2272C146.016 15.2273 146.016 15.2311 146.015 19.1427C146.015 31.4535 145.947 43.7651 146.069 56.0747C146.094 58.67 145.252 59.3582 142.734 59.3496C118.789 59.2678 94.8425 59.3448 70.8972 59.2407C68.1826 59.2288 67.5143 60.0282 67.5258 62.6701C67.6261 85.5466 67.5832 108.424 67.5829 131.301C67.5829 132.358 67.5829 133.416 67.5829 134.729C53.0107 134.729 38.6426 134.729 23.8725 134.729C23.8725 133.534 23.8725 132.406 23.8725 131.278C23.8727 94.2484 23.8667 57.2189 23.8799 20.1893C23.8818 14.7529 23.2034 15.2539 29.1574 15.2269Z" fill="#ABA0B8"/>
<path d="M277.044 80.3115C277.044 98.6127 277.044 116.623 277.044 134.821C262.387 134.821 248.088 134.821 233.356 134.821C233.356 133.577 233.356 132.454 233.356 131.33C233.357 110.962 233.362 90.5934 233.357 70.2249C233.355 62.7189 230.012 59.3342 222.613 59.333C201.466 59.3296 180.32 59.3335 159.173 59.3313C155.301 59.3309 154.878 58.9201 154.874 54.9717C154.861 42.7507 154.921 30.5292 154.825 18.3089C154.806 15.9024 155.567 15.1325 157.985 15.1367C193.585 15.1977 229.186 15.1632 264.786 15.1897C271.542 15.1947 277.046 20.8624 277.046 27.6446C277.048 45.1032 277.045 62.5618 277.044 80.3115Z" fill="#493CA2"/>
<path d="M210.58 101.844C210.58 133.024 210.58 163.912 210.58 194.087C173.143 156.945 135.585 119.683 97.7539 82.1505C98.9447 82.0936 99.956 82.0033 100.967 82.0031C134.725 81.9946 168.482 81.992 202.24 81.996C208.878 81.9967 210.574 83.7378 210.581 90.4965C210.585 94.1821 210.581 97.8677 210.58 101.844Z" fill="#787187"/>
<path d="M90.321 126.869C90.3209 114.193 90.3209 101.807 90.3209 89.9752C127.653 127.218 165.105 164.58 202.563 201.949C201.961 202.023 200.87 202.276 199.78 202.274C166.026 202.228 132.272 202.157 98.5187 202.09C91.9682 202.077 90.3212 200.421 90.32 193.794C90.3161 171.583 90.3202 149.371 90.321 126.869Z" fill="#667A9B"/>
</g>
<defs>
<clipPath id="clip0_22_117">
<rect width="298" height="284" fill="white"/>
</clipPath>
</defs>
</svg>
